<svg xmlns="http://www.w3.org/2000/svg" width="256" height="256" viewBox="0 0 256 256">
  <defs>
    <style>
      .cls-1 {
        fill: #fff;
        fill-rule: evenodd;
      }
    </style>
  </defs>
  <path id="fa-angle-double-down" class="cls-1" d="M242.055,118.339l-11.67-11.646a7.349,7.349,0,0,0-10.736,0L127.922,198.23,36.2,106.693a7.349,7.349,0,0,0-10.737,0l-11.67,11.646a7.315,7.315,0,0,0,0,10.714l108.765,108.54a7.351,7.351,0,0,0,10.736,0l108.765-108.54a7.315,7.315,0,0,0,0-10.714h0Zm0-89.441-11.67-11.646a7.35,7.35,0,0,0-10.736,0l-91.727,91.537L36.2,17.252a7.351,7.351,0,0,0-10.737,0L13.789,28.9a7.315,7.315,0,0,0,0,10.714l108.765,108.54a7.351,7.351,0,0,0,10.736,0L242.055,39.612a7.315,7.315,0,0,0,0-10.714h0Z"/>
</svg>
