<svg xmlns="http://www.w3.org/2000/svg" width="256" height="256" viewBox="0 0 256 256">
  <defs>
    <style>
      .cls-1 {
        fill: #787878;
      }

      .cls-1, .cls-2, .cls-3 {
        fill-rule: evenodd;
      }

      .cls-2 {
        fill: #ed5156;
      }

      .cls-3 {
        fill: #f7ae54;
      }
    </style>
  </defs>
  <path class="cls-1" d="M64,153.6V140.8H166.4v12.8H64Zm0-64H166.4v12.8H64V89.6Zm0-51.2H166.4V51.2H64V38.4ZM38.4,51.2V38.4H51.2V51.2H38.4Zm12.8,51.2H38.4V89.6H51.2v12.8Zm0,51.2H38.4V140.8H51.2v12.8Z"/>
  <path id="fa-edit" class="cls-2" d="M230.4,94.485a11.4,11.4,0,0,0-3.446-8.369l-18.7-18.708a11.882,11.882,0,0,0-16.735,0L180.2,78.732l35.439,35.445,11.32-11.323A11.4,11.4,0,0,0,230.4,94.485Z"/>
  <path class="cls-3" d="M89.632,169.315v35.446H125.07l82.691-82.707L172.322,86.609"/>
</svg>
