<svg xmlns="http://www.w3.org/2000/svg" width="256" height="256" viewBox="0 0 256 256">
  <defs>
    <style>
      .cls-1 {
        fill: #fff;
      }

      .cls-2 {
        fill: #36a805;
        fill-rule: evenodd;
      }
    </style>
  </defs>
  <circle class="cls-1" cx="128" cy="128" r="89.594"/>
  <path id="fa-plus-circle" class="cls-2" d="M185.269,142.762a8.2,8.2,0,0,1-6,2.534H145.119v34.149a8.658,8.658,0,0,1-8.537,8.537H119.507a8.658,8.658,0,0,1-8.537-8.537V145.3H76.822a8.655,8.655,0,0,1-8.537-8.537V119.685a8.657,8.657,0,0,1,8.537-8.537H110.97V77a8.657,8.657,0,0,1,8.537-8.537h17.075A8.657,8.657,0,0,1,145.119,77v34.148h34.148a8.658,8.658,0,0,1,8.537,8.537v17.074A8.2,8.2,0,0,1,185.269,142.762Zm-5.8-103.245a100.234,100.234,0,0,0-51.423-13.739A100.22,100.22,0,0,0,76.622,39.517,101.984,101.984,0,0,0,39.339,76.8,100.211,100.211,0,0,0,25.6,128.222a100.2,100.2,0,0,0,13.739,51.423,101.951,101.951,0,0,0,37.283,37.282,100.211,100.211,0,0,0,51.422,13.74,100.225,100.225,0,0,0,51.423-13.74,101.992,101.992,0,0,0,37.283-37.282,100.224,100.224,0,0,0,13.739-51.423A100.232,100.232,0,0,0,216.75,76.8,102.025,102.025,0,0,0,179.467,39.517Z"/>
</svg>
